# xmcd
#
# Track frame offsets:
#	150
#	18520
#	33089
#	47578
#	65062
#	88489
#	103579
#	120662
#	139857
#	157772
#
# Disc length: 2329 seconds
#
# Revision: 1
# Processed by: cddbd v1.5.2PL0 Copyright (c) Steve Scherf et al.
# Submitted via: audiograbber 1.83.01
#
DISCID=8009170a
DTITLE=Sam Hunt - Montevallo
DYEAR=2014
DGENRE=Country
TTITLE0=Take Your Time
TTITLE1=Leave the Night On
TTITLE2=House Party
TTITLE3=Break Up in a Small Town
TTITLE4=Single For the Summer
TTITLE5=Ex To See
TTITLE6=Make You Miss Me
TTITLE7=Cop Car
TTITLE8=Raised on It
TTITLE9=Speakers
EXTD=
EXTT0=
EXTT1=
EXTT2=
EXTT3=
EXTT4=
EXTT5=
EXTT6=
EXTT7=
EXTT8=
EXTT9=
PLAYORDER=
